<svg xmlns="http://www.w3.org/2000/svg" width="1024" height="1024" viewBox="0 0 1024 1024">
<g>
<path d="M 702.00 905.81 C695.42,906.25 317.00,906.44 317.00,906.00 C317.00,905.72 315.09,905.57 312.75,905.66 C310.41,905.75 307.15,905.42 305.50,904.93 C303.85,904.45 300.70,903.82 298.50,903.54 C292.51,902.78 290.35,902.26 288.02,901.01 C286.86,900.39 284.15,899.75 281.98,899.59 C279.82,899.42 277.48,898.82 276.78,898.24 C276.07,897.67 273.70,897.04 271.50,896.85 C269.30,896.66 267.24,896.15 266.93,895.72 C266.61,895.30 263.46,893.88 259.93,892.58 C250.46,889.08 242.00,885.14 242.00,884.23 C242.00,883.79 241.17,883.36 240.16,883.29 C238.14,883.13 221.48,873.58 220.51,872.02 C220.19,871.49 217.91,870.17 215.46,869.08 C213.01,868.00 211.00,866.63 211.00,866.03 C211.00,865.44 208.95,863.66 206.45,862.07 C200.85,858.52 177.60,836.71 173.50,831.16 C171.85,828.93 169.49,826.56 168.25,825.88 C167.01,825.21 166.23,824.44 166.51,824.16 C167.18,823.49 164.57,819.56 159.41,813.48 C157.06,810.72 153.93,805.99 152.44,802.98 C150.95,799.97 148.93,796.60 147.94,795.50 C144.83,792.04 135.88,772.23 132.58,761.50 C131.90,759.30 130.82,756.23 130.17,754.68 C129.53,753.14 129.00,751.28 129.00,750.56 C129.00,749.84 128.25,747.50 127.34,745.37 C126.43,743.24 125.76,740.25 125.86,738.72 C125.96,737.19 125.47,734.94 124.79,733.72 C123.20,730.91 122.79,728.62 122.86,723.00 C122.89,720.53 122.20,716.60 121.33,714.28 C120.46,711.96 119.98,709.17 120.27,708.08 C120.56,706.99 120.22,705.32 119.53,704.38 C118.21,702.57 118.60,699.00 120.12,699.00 C120.62,699.00 121.00,622.91 121.00,520.00 C121.00,417.09 120.62,341.00 120.12,341.00 C118.72,341.00 118.12,337.28 119.31,336.09 C119.91,335.49 120.29,333.21 120.16,331.01 C120.03,328.82 120.50,326.00 121.21,324.76 C121.92,323.52 122.57,320.25 122.65,317.50 C122.81,312.18 123.02,311.13 124.86,306.66 C125.49,305.10 125.98,302.62 125.94,301.16 C125.86,298.52 126.16,296.88 127.28,294.00 C127.60,293.17 129.29,288.11 131.05,282.75 C132.80,277.39 134.63,273.00 135.12,273.00 C135.60,273.00 136.00,271.98 136.00,270.72 C136.00,269.47 136.61,267.56 137.35,266.47 C138.09,265.39 139.03,263.17 139.42,261.54 C139.82,259.91 141.46,256.62 143.07,254.24 C144.68,251.85 146.00,249.25 146.00,248.45 C146.00,247.65 146.44,247.00 146.98,247.00 C147.52,247.00 148.26,245.76 148.62,244.25 C148.98,242.74 150.12,240.69 151.14,239.71 C152.16,238.73 153.00,237.28 153.00,236.50 C153.00,235.71 154.25,233.59 155.78,231.78 C157.30,229.98 159.18,227.26 159.94,225.75 C160.71,224.24 161.69,223.00 162.12,223.00 C162.54,223.00 164.59,220.41 166.67,217.25 C171.66,209.65 190.58,190.22 200.02,183.01 C204.15,179.85 208.15,176.52 208.90,175.62 C210.99,173.10 223.56,165.00 225.38,165.00 C226.27,165.00 227.00,164.60 227.00,164.11 C227.00,163.62 228.09,162.94 229.43,162.61 C230.77,162.27 232.56,161.30 233.41,160.44 C234.27,159.59 235.95,158.70 237.16,158.47 C238.37,158.24 239.61,157.68 239.93,157.23 C240.97,155.75 248.08,152.00 249.86,152.00 C250.82,152.00 252.13,151.47 252.77,150.83 C253.97,149.63 258.07,147.98 266.21,145.42 C268.80,144.61 271.17,143.53 271.49,143.02 C271.81,142.51 272.62,142.30 273.30,142.56 C273.98,142.82 277.40,141.91 280.90,140.54 C284.40,139.17 287.62,138.26 288.05,138.53 C288.48,138.80 290.11,138.50 291.67,137.88 C295.16,136.49 299.26,135.85 304.50,135.89 C306.70,135.91 310.40,135.21 312.72,134.34 C315.04,133.47 317.90,133.00 319.08,133.31 C320.25,133.62 322.39,133.42 323.84,132.87 C325.64,132.19 326.57,132.21 326.81,132.94 C327.06,133.68 369.48,134.00 467.98,134.00 L 608.79 134.00 L 607.84 138.21 C607.32,140.53 606.51,142.89 606.05,143.46 C605.58,144.03 604.98,146.87 604.71,149.76 C604.44,152.66 603.68,155.67 603.02,156.47 C602.00,157.70 601.00,165.63 600.83,173.75 C600.81,174.99 600.43,176.00 599.99,176.00 C598.90,176.00 598.74,179.37 598.67,203.00 C598.61,223.97 598.85,228.74 600.05,230.50 C600.42,231.05 600.77,232.18 600.81,233.00 C600.86,233.82 601.07,237.73 601.27,241.68 C601.47,245.63 602.21,249.55 602.92,250.40 C603.62,251.24 604.41,254.09 604.69,256.72 C604.96,259.35 605.61,262.02 606.14,262.66 C606.67,263.30 607.33,265.08 607.61,266.61 C608.19,269.84 611.17,278.84 613.47,284.29 C614.35,286.38 614.83,288.46 614.55,288.91 C614.27,289.37 614.93,290.77 616.02,292.02 C617.11,293.28 618.00,295.08 618.00,296.03 C618.00,296.98 618.67,298.32 619.50,299.00 C620.33,299.68 621.00,301.26 621.00,302.50 C621.00,303.74 621.67,305.32 622.50,306.00 C623.33,306.68 624.00,307.68 624.00,308.21 C624.00,308.75 624.89,310.32 625.99,311.71 C627.08,313.10 627.79,314.52 627.58,314.88 C627.36,315.23 628.47,317.32 630.05,319.51 C631.63,321.70 633.56,324.85 634.33,326.50 C635.11,328.15 636.93,330.59 638.37,331.92 C639.82,333.26 641.00,334.86 641.00,335.48 C641.00,337.25 649.67,346.98 650.55,346.20 C650.97,345.81 651.04,345.99 650.70,346.59 C649.81,348.15 665.32,365.37 674.26,372.75 C678.42,376.19 682.12,379.00 682.48,379.00 C682.84,379.00 684.18,380.24 685.47,381.75 C686.75,383.26 689.53,385.38 691.65,386.47 C693.77,387.55 697.19,389.91 699.25,391.72 C701.32,393.52 703.49,395.00 704.07,395.00 C704.66,395.00 705.82,395.67 706.64,396.50 C707.47,397.33 708.98,398.00 710.01,398.00 C711.04,398.00 712.12,398.39 712.42,398.87 C712.91,399.66 732.49,409.48 739.50,412.45 C746.88,415.57 753.66,418.00 755.02,418.01 C755.83,418.01 757.72,418.65 759.21,419.43 C760.70,420.20 763.63,420.96 765.71,421.10 C767.79,421.25 770.62,421.91 772.00,422.57 C773.38,423.24 777.07,424.03 780.21,424.33 C783.36,424.64 786.96,425.45 788.21,426.14 C791.10,427.72 811.28,427.67 811.81,426.08 C812.31,424.57 814.74,424.73 815.70,426.35 C816.89,428.35 823.22,429.01 830.25,427.88 C834.57,427.19 836.57,427.20 836.81,427.94 C837.27,429.30 840.00,429.33 840.00,427.98 C840.00,427.36 842.14,427.13 845.50,427.41 C848.53,427.65 851.00,427.50 851.00,427.07 C851.00,426.63 852.09,426.49 853.43,426.74 C854.76,427.00 857.57,426.63 859.68,425.92 C864.34,424.35 866.63,423.94 870.37,424.00 C871.94,424.03 873.81,423.57 874.52,422.99 C876.25,421.55 879.76,420.80 884.10,420.94 C886.24,421.02 888.22,420.44 888.97,419.53 C889.08,419.41 889.18,419.28 889.28,419.16 C889.88,418.42 890.39,417.79 890.81,417.85 C893.00,418.11 893.01,436.31 893.05,548.32 L 893.05 559.25 C893.08,636.94 893.27,702.41 893.47,704.75 C893.67,707.09 893.54,709.00 893.17,709.00 C892.80,709.00 892.55,710.91 892.61,713.25 C892.68,715.59 892.38,717.95 891.96,718.50 C890.93,719.83 889.16,729.86 889.39,733.00 C889.50,734.38 889.03,736.40 888.35,737.50 C887.67,738.60 886.90,741.30 886.64,743.50 C886.38,745.70 884.97,750.65 883.51,754.50 C882.06,758.35 880.44,763.20 879.92,765.28 C879.40,767.36 878.55,769.84 878.04,770.78 C877.52,771.73 876.36,774.30 875.46,776.50 C872.05,784.85 866.92,795.00 866.11,795.00 C865.65,795.00 863.56,798.38 861.47,802.50 C859.37,806.62 857.32,810.00 856.91,810.00 C856.50,810.00 855.13,811.69 853.87,813.75 C852.60,815.81 849.31,820.24 846.54,823.59 C835.39,837.05 833.51,839.52 833.77,840.32 C833.93,840.77 833.65,840.90 833.17,840.60 C832.68,840.30 829.71,842.75 826.55,846.03 C823.40,849.31 820.48,852.00 820.06,852.00 C819.64,852.00 815.75,855.14 811.40,858.99 C807.06,862.83 802.96,865.98 802.31,865.99 C801.66,865.99 799.04,867.81 796.49,870.01 C793.94,872.22 791.43,873.77 790.92,873.45 C790.42,873.14 790.00,873.33 790.00,873.87 C790.00,874.41 788.20,875.65 786.00,876.62 C783.80,877.59 782.00,878.71 782.00,879.12 C782.00,879.93 761.90,890.00 760.27,890.00 C759.70,890.00 757.94,890.67 756.36,891.49 C754.79,892.32 752.58,892.99 751.45,892.99 C750.32,893.00 748.97,893.41 748.45,893.92 C747.26,895.07 736.52,898.89 732.50,899.59 C730.85,899.87 727.92,900.62 726.00,901.25 C720.76,902.96 720.02,903.08 713.30,903.39 C709.89,903.54 706.52,904.12 705.80,904.66 C705.09,905.20 703.38,905.72 702.00,905.81 ZM 416.00 735.87 C416.00,736.62 418.84,737.00 424.50,737.00 C429.50,737.00 433.00,736.59 433.00,736.00 C433.00,735.45 434.15,735.00 435.56,735.00 C437.01,735.00 437.85,734.57 437.50,734.00 C437.16,733.45 437.79,733.00 438.89,733.00 C440.00,733.00 441.34,733.79 441.88,734.75 C442.73,736.27 444.47,736.50 454.89,736.50 C464.68,736.50 467.23,736.20 468.56,734.87 C470.61,732.82 471.05,727.92 469.75,721.54 C469.02,717.95 469.06,716.48 469.87,716.21 C471.14,715.79 471.45,709.00 470.20,709.00 C469.76,709.00 469.59,706.08 469.82,702.50 C470.06,698.77 469.83,696.00 469.28,696.00 C468.76,696.00 468.31,695.44 468.29,694.75 C468.26,694.06 467.91,692.71 467.51,691.75 C467.08,690.70 467.23,690.00 467.89,690.00 C468.50,690.00 469.00,689.10 469.00,688.00 C469.00,686.90 468.61,686.00 468.12,686.00 C467.64,686.00 467.42,683.53 467.63,680.50 C467.84,677.47 467.67,675.00 467.26,675.00 C466.84,675.00 466.54,669.07 466.59,661.82 C466.67,649.28 466.78,648.56 468.93,647.13 C470.35,646.19 473.01,645.72 476.10,645.89 C479.09,646.05 481.00,645.73 481.00,645.07 C481.00,644.48 482.15,644.00 483.56,644.00 C485.01,644.00 485.85,643.57 485.50,643.00 C484.55,641.47 486.13,641.81 488.06,643.56 C489.01,644.41 490.84,645.25 492.14,645.42 C493.44,645.60 495.17,645.98 496.00,646.28 C499.03,647.39 526.00,648.05 526.00,647.01 C526.00,646.46 526.70,646.00 527.56,646.00 C528.42,646.00 528.84,645.55 528.50,645.00 C528.16,644.45 528.82,644.00 529.97,644.00 C531.12,644.00 532.32,644.67 532.64,645.50 C533.04,646.54 534.67,647.00 537.98,647.00 C541.01,647.00 543.21,646.45 544.00,645.50 C545.71,643.44 547.29,643.62 549.03,646.06 C550.37,647.93 551.15,648.05 558.00,647.44 C562.12,647.06 566.03,646.34 566.68,645.82 C568.04,644.73 571.67,644.17 578.01,644.07 C581.37,644.02 583.21,643.36 585.21,641.51 C586.74,640.09 588.16,639.44 588.51,640.01 C589.43,641.50 592.12,641.20 594.14,639.37 C595.13,638.48 597.33,637.58 599.03,637.39 C600.73,637.19 602.80,636.34 603.63,635.51 C604.46,634.68 606.00,634.00 607.04,634.00 C608.08,634.00 610.41,632.72 612.22,631.16 C614.02,629.60 618.80,626.37 622.84,623.99 C634.07,617.37 649.23,601.46 657.00,588.14 C657.83,586.73 659.09,584.93 659.81,584.15 C661.44,582.39 666.00,573.04 666.00,571.47 C666.00,570.83 666.90,569.27 668.00,568.00 C670.00,565.69 670.39,564.62 670.06,562.21 C669.97,561.49 670.81,559.43 671.93,557.61 C673.06,555.79 673.74,554.07 673.45,553.78 C673.16,553.50 673.84,550.93 674.96,548.09 C676.08,545.25 677.00,541.61 677.00,540.00 C677.00,538.39 677.71,534.99 678.57,532.45 C679.43,529.91 680.22,524.49 680.32,520.42 C680.42,516.34 680.84,513.00 681.25,513.00 C682.51,513.00 682.08,509.94 680.62,508.48 C679.86,507.72 678.85,507.41 678.38,507.80 C677.91,508.18 678.35,507.51 679.37,506.30 C680.93,504.45 681.22,502.34 681.22,493.03 C681.22,486.19 680.79,481.45 680.08,480.59 C679.20,479.54 679.29,478.85 680.47,477.68 C682.18,475.97 682.50,474.00 681.07,474.00 C680.55,474.00 680.30,472.20 680.50,470.00 C680.70,467.80 680.52,466.00 680.11,466.00 C679.69,466.00 679.53,464.76 679.75,463.24 C679.97,461.72 679.41,458.46 678.49,455.99 C677.58,453.52 676.89,449.99 676.95,448.13 C677.02,446.28 676.35,443.66 675.46,442.30 C674.57,440.95 673.74,438.83 673.61,437.60 C673.48,436.38 671.76,432.03 669.79,427.94 C667.82,423.85 664.99,417.88 663.49,414.67 C660.71,408.69 651.48,395.96 643.90,387.62 C638.74,381.95 630.23,375.37 628.65,375.83 C628.02,376.02 627.82,375.85 628.20,375.46 C628.90,374.76 621.51,368.00 620.04,368.00 C619.62,368.00 617.75,366.66 615.89,365.02 C614.02,363.37 611.59,362.02 610.47,362.02 C609.36,362.01 607.66,361.08 606.70,359.96 C605.73,358.83 604.48,358.20 603.91,358.56 C603.34,358.91 602.06,358.46 601.06,357.55 C600.06,356.65 597.96,355.68 596.38,355.39 C594.81,355.11 592.80,354.23 591.93,353.43 C591.05,352.64 590.10,352.24 589.80,352.53 C589.51,352.83 587.07,352.31 584.38,351.39 C581.70,350.46 578.60,349.56 577.50,349.39 C573.09,348.68 572.14,348.36 570.61,347.09 C569.69,346.33 565.71,345.61 561.26,345.41 C556.99,345.21 552.71,345.01 551.75,344.96 C550.79,344.91 550.00,344.50 550.00,344.03 C550.00,343.57 545.67,342.86 540.39,342.47 C533.04,341.91 530.59,342.05 529.99,343.02 C529.40,343.97 527.69,344.10 523.35,343.54 C520.13,343.11 514.69,342.85 511.25,342.95 C507.38,343.06 505.00,342.72 505.00,342.07 C505.00,341.33 488.83,341.00 452.00,341.00 C418.72,341.00 399.00,341.36 399.00,341.96 C399.00,342.51 395.94,342.83 391.93,342.71 C386.09,342.54 384.69,342.81 383.88,344.25 C383.34,345.21 382.45,346.00 381.89,346.00 C381.34,346.00 381.16,345.55 381.50,345.00 C381.84,344.45 381.42,344.00 380.56,344.00 C379.70,344.00 379.00,343.49 379.00,342.87 C379.00,341.59 358.88,342.62 358.00,343.95 C357.73,344.36 356.83,344.76 356.00,344.84 C355.17,344.92 353.38,345.17 352.00,345.41 C350.62,345.64 349.20,345.87 348.83,345.92 C348.46,345.96 346.83,347.12 345.21,348.48 C342.34,350.89 342.28,351.14 342.77,358.23 C343.05,362.23 343.67,365.75 344.14,366.06 C344.62,366.37 344.93,367.72 344.83,369.06 C344.73,370.40 344.99,372.51 345.39,373.75 C345.85,375.14 345.73,376.00 345.07,376.00 C344.48,376.00 344.00,377.12 344.00,378.50 C344.00,379.88 344.42,381.00 344.93,381.00 C345.44,381.00 345.84,384.94 345.82,389.75 C345.72,409.38 345.97,414.00 347.09,414.00 C347.71,414.00 347.96,414.66 347.65,415.47 C347.34,416.28 347.59,418.39 348.21,420.17 C349.05,422.59 349.04,423.49 348.17,423.78 C346.68,424.27 346.63,430.00 348.11,430.00 C348.81,430.00 349.05,431.40 348.77,433.75 C348.52,435.81 348.66,438.74 349.09,440.25 C349.59,442.03 349.48,443.00 348.78,443.00 C348.03,443.00 347.95,445.81 348.50,452.25 C348.93,457.34 349.19,466.26 349.06,472.09 C348.78,484.94 350.65,501.91 352.59,504.08 C354.19,505.87 354.52,509.44 353.00,508.50 C352.45,508.16 352.00,508.58 352.00,509.44 C352.00,510.30 351.55,511.00 351.00,511.00 C350.35,511.00 350.00,522.67 350.00,544.00 C350.00,565.33 350.35,577.00 351.00,577.00 C351.55,577.00 352.00,578.15 352.00,579.56 C352.00,581.01 352.43,581.85 353.00,581.50 C354.58,580.52 354.16,585.16 352.50,587.00 C351.50,588.11 350.68,592.55 350.02,600.57 C348.79,615.44 348.69,652.00 349.88,652.00 C351.25,652.00 351.95,657.34 350.78,658.77 C350.20,659.46 349.61,665.54 349.47,672.27 C349.32,678.99 348.89,685.27 348.51,686.20 C348.13,687.14 347.97,697.14 348.16,708.43 C348.47,727.38 348.65,729.10 350.50,730.89 C353.34,733.65 362.12,736.07 364.48,734.75 C365.77,734.03 366.87,734.06 368.15,734.86 C370.70,736.45 395.69,736.42 396.23,734.82 C396.52,733.93 397.95,733.92 402.12,734.75 C405.15,735.36 409.51,735.61 411.82,735.30 C414.59,734.93 416.00,735.12 416.00,735.87 ZM 520.23 552.38 C515.98,552.73 510.70,553.20 508.50,553.41 C506.30,553.63 500.23,553.39 495.00,552.88 C489.77,552.37 482.46,552.13 478.75,552.36 C475.04,552.59 472.00,552.37 472.00,551.86 C472.00,551.36 470.42,551.13 468.48,551.34 C465.55,551.66 464.90,551.38 464.54,549.61 C463.42,544.13 462.75,534.66 462.91,526.25 C463.00,520.92 462.67,517.00 462.12,517.00 C461.53,517.00 461.21,506.43 461.30,489.50 C461.38,474.38 461.81,462.00 462.26,462.00 C462.71,462.00 463.01,457.71 462.92,452.46 C462.79,444.58 463.07,442.58 464.53,440.96 C465.51,439.88 467.14,439.00 468.15,439.00 C469.17,439.00 470.00,438.59 470.00,438.09 C470.00,437.59 472.66,437.39 475.91,437.65 C482.12,438.14 493.67,436.51 495.67,434.85 C496.44,434.22 498.31,434.27 501.03,435.01 C503.33,435.63 505.82,435.90 506.56,435.61 C507.31,435.33 509.85,435.75 512.21,436.56 C514.57,437.36 518.08,437.88 520.00,437.71 C522.08,437.52 524.71,438.13 526.50,439.20 C528.15,440.18 530.68,440.99 532.13,441.00 C533.57,441.00 535.32,441.67 536.00,442.50 C536.68,443.33 538.09,444.00 539.12,444.00 C540.15,444.00 544.44,447.38 548.66,451.50 C552.88,455.62 555.97,459.00 555.51,459.00 C555.06,459.00 555.45,459.84 556.39,460.88 C557.32,461.91 558.31,464.00 558.59,465.52 C558.87,467.05 559.75,469.23 560.55,470.37 C561.35,471.51 562.00,473.50 562.00,474.79 C562.00,476.08 562.50,478.07 563.11,479.21 C563.73,480.36 564.36,482.69 564.52,484.40 C564.69,486.10 565.13,488.74 565.52,490.25 C565.97,492.02 565.82,493.00 565.11,493.00 C563.57,493.00 563.69,500.73 565.24,501.25 C566.21,501.57 566.22,502.22 565.27,504.32 C564.60,505.78 564.30,507.62 564.60,508.40 C564.90,509.18 564.44,511.19 563.57,512.86 C562.71,514.53 562.00,516.85 562.00,518.00 C562.00,519.16 561.12,521.77 560.05,523.80 C558.98,525.84 557.83,528.17 557.51,529.00 C555.39,534.41 545.75,545.00 542.94,545.00 C542.04,545.00 540.27,545.90 539.00,547.00 C537.72,548.11 535.26,549.00 533.47,549.00 C531.70,549.00 529.73,549.62 529.11,550.37 C528.42,551.20 524.87,552.00 520.23,552.38 Z" fill="rgb(0,0,0)"/>
<path d="M 840.46 360.96 C811.36,364.29 780.60,358.74 753.50,345.27 C716.30,326.79 686.43,292.58 673.50,253.64 C659.95,212.83 662.89,171.41 682.11,132.50 C706.90,82.30 757.41,48.46 812.50,45.16 C842.56,43.36 869.55,48.79 895.25,61.83 C910.85,69.75 921.47,77.48 934.54,90.48 C947.80,103.66 956.79,115.57 964.29,129.90 C991.38,181.67 987.57,244.97 954.50,292.50 C927.33,331.56 887.29,355.59 840.46,360.96 Z" fill="rgb(0,0,0)"/>
<path d="M 708.00 908.67 C698.25,910.31 684.20,910.44 512.50,910.56 C410.75,910.63 325.70,910.53 323.50,910.34 C267.00,905.34 218.60,882.89 180.28,843.90 C163.93,827.27 152.74,812.09 142.52,792.73 C129.44,767.92 121.97,744.14 118.44,716.04 C116.29,698.96 116.29,341.04 118.44,323.96 C122.83,289.07 134.17,258.10 153.03,229.54 C189.66,174.07 248.31,138.24 314.21,131.06 C320.58,130.36 373.81,130.00 469.07,130.00 C593.29,130.00 614.14,130.20 613.67,131.40 C611.90,136.02 605.88,162.34 604.56,171.24 C597.06,221.79 608.41,276.74 635.28,319.93 C647.15,339.00 667.78,362.26 685.00,375.97 C718.65,402.77 758.45,419.14 801.99,424.08 C816.87,425.77 846.33,424.75 861.00,422.04 C870.92,420.21 892.32,414.97 896.65,413.30 C897.88,412.83 898.03,433.36 897.74,561.63 C897.45,695.48 897.69,713.77 893.87,731.17 C892.96,735.31 891.82,739.40 890.39,744.97 C880.73,782.69 861.25,816.73 833.16,844.97 C819.95,858.25 812.13,864.65 796.44,875.01 C771.18,891.68 741.17,903.10 708.00,908.67 ZM 702.00 905.81 C703.38,905.72 705.09,905.20 705.80,904.66 C706.52,904.12 709.89,903.54 713.30,903.39 C720.02,903.08 720.76,902.96 726.00,901.25 C727.92,900.62 730.85,899.87 732.50,899.59 C736.52,898.89 747.26,895.07 748.45,893.92 C748.97,893.41 750.32,893.00 751.45,892.99 C752.58,892.99 754.79,892.32 756.36,891.49 C757.94,890.67 759.70,890.00 760.27,890.00 C761.90,890.00 782.00,879.93 782.00,879.12 C782.00,878.71 783.80,877.59 786.00,876.62 C788.20,875.65 790.00,874.41 790.00,873.87 C790.00,873.33 790.42,873.14 790.92,873.45 C791.43,873.77 793.94,872.22 796.49,870.01 C799.04,867.81 801.66,865.99 802.31,865.99 C802.96,865.98 807.06,862.83 811.40,858.99 C815.75,855.14 819.64,852.00 820.06,852.00 C820.48,852.00 823.40,849.31 826.55,846.03 C829.71,842.75 832.68,840.30 833.17,840.60 C833.65,840.90 833.93,840.77 833.77,840.32 C833.51,839.52 835.39,837.05 846.54,823.59 C849.31,820.24 852.60,815.81 853.87,813.75 C855.13,811.69 856.50,810.00 856.91,810.00 C857.32,810.00 859.37,806.62 861.47,802.50 C863.56,798.38 865.65,795.00 866.11,795.00 C866.92,795.00 872.05,784.85 875.46,776.50 C876.36,774.30 877.52,771.73 878.04,770.78 C878.55,769.84 879.40,767.36 879.92,765.28 C880.44,763.20 882.06,758.35 883.51,754.50 C884.97,750.65 886.38,745.70 886.64,743.50 C886.90,741.30 887.67,738.60 888.35,737.50 C889.03,736.40 889.50,734.38 889.39,733.00 C889.16,729.86 890.93,719.83 891.96,718.50 C892.38,717.95 892.68,715.59 892.61,713.25 C892.55,710.91 892.80,709.00 893.17,709.00 C893.54,709.00 893.67,707.09 893.47,704.75 C893.27,702.41 893.08,636.94 893.05,559.25 L 893.05 548.32 C893.01,436.31 893.00,418.11 890.81,417.85 C890.39,417.79 889.88,418.42 889.28,419.16 C889.18,419.28 889.08,419.41 888.97,419.53 C888.22,420.44 886.24,421.02 884.10,420.94 C879.76,420.80 876.25,421.55 874.52,422.99 C873.81,423.57 871.94,424.03 870.37,424.00 C866.63,423.94 864.34,424.35 859.68,425.92 C857.57,426.63 854.76,427.00 853.43,426.74 C852.09,426.49 851.00,426.63 851.00,427.07 C851.00,427.50 848.53,427.65 845.50,427.41 C842.14,427.13 840.00,427.36 840.00,427.98 C840.00,429.33 837.27,429.30 836.81,427.94 C836.57,427.20 834.57,427.19 830.25,427.88 C823.22,429.01 816.89,428.35 815.70,426.35 C814.74,424.73 812.31,424.57 811.81,426.08 C811.28,427.67 791.10,427.72 788.21,426.14 C786.96,425.45 783.36,424.64 780.21,424.33 C777.07,424.03 773.38,423.24 772.00,422.57 C770.62,421.91 767.79,421.25 765.71,421.10 C763.63,420.96 760.70,420.20 759.21,419.43 C757.72,418.65 755.83,418.01 755.02,418.01 C753.66,418.00 746.88,415.57 739.50,412.45 C732.49,409.48 712.91,399.66 712.42,398.87 C712.12,398.39 711.04,398.00 710.01,398.00 C708.98,398.00 707.47,397.33 706.64,396.50 C705.82,395.67 704.66,395.00 704.07,395.00 C703.49,395.00 701.32,393.52 699.25,391.72 C697.19,389.91 693.77,387.55 691.65,386.47 C689.53,385.38 686.75,383.26 685.47,381.75 C684.18,380.24 682.84,379.00 682.48,379.00 C682.12,379.00 678.42,376.19 674.26,372.75 C665.32,365.37 649.81,348.15 650.70,346.59 C651.04,345.99 650.97,345.81 650.55,346.20 C649.67,346.98 641.00,337.25 641.00,335.48 C641.00,334.86 639.82,333.26 638.37,331.92 C636.93,330.59 635.11,328.15 634.33,326.50 C633.56,324.85 631.63,321.70 630.05,319.51 C628.47,317.32 627.36,315.23 627.58,314.88 C627.79,314.52 627.08,313.10 625.99,311.71 C624.89,310.32 624.00,308.75 624.00,308.21 C624.00,307.68 623.33,306.68 622.50,306.00 C621.67,305.32 621.00,303.74 621.00,302.50 C621.00,301.26 620.33,299.68 619.50,299.00 C618.67,298.32 618.00,296.98 618.00,296.03 C618.00,295.08 617.11,293.28 616.02,292.02 C614.93,290.77 614.27,289.37 614.55,288.91 C614.83,288.46 614.35,286.38 613.47,284.29 C611.17,278.84 608.19,269.84 607.61,266.61 C607.33,265.08 606.67,263.30 606.14,262.66 C605.61,262.02 604.96,259.35 604.69,256.72 C604.41,254.09 603.62,251.24 602.92,250.40 C602.21,249.55 601.47,245.63 601.27,241.68 C601.07,237.73 600.86,233.82 600.81,233.00 C600.77,232.18 600.42,231.05 600.05,230.50 C598.85,228.74 598.61,223.97 598.67,203.00 C598.74,179.37 598.90,176.00 599.99,176.00 C600.43,176.00 600.81,174.99 600.83,173.75 C601.00,165.63 602.00,157.70 603.02,156.47 C603.68,155.67 604.44,152.66 604.71,149.76 C604.98,146.87 605.58,144.03 606.05,143.46 C606.51,142.89 607.32,140.53 607.84,138.21 L 608.79 134.00 L 467.98 134.00 C369.48,134.00 327.06,133.68 326.81,132.94 C326.57,132.21 325.64,132.19 323.84,132.87 C322.39,133.42 320.25,133.62 319.08,133.31 C317.90,133.00 315.04,133.47 312.72,134.34 C310.40,135.21 306.70,135.91 304.50,135.89 C299.26,135.85 295.16,136.49 291.67,137.88 C290.11,138.50 288.48,138.80 288.05,138.53 C287.62,138.26 284.40,139.17 280.90,140.54 C277.40,141.91 273.98,142.82 273.30,142.56 C272.62,142.30 271.81,142.51 271.49,143.02 C271.17,143.53 268.80,144.61 266.21,145.42 C258.07,147.98 253.97,149.63 252.77,150.83 C252.13,151.47 250.82,152.00 249.86,152.00 C248.08,152.00 240.97,155.75 239.93,157.23 C239.61,157.68 238.37,158.24 237.16,158.47 C235.95,158.70 234.27,159.59 233.41,160.44 C232.56,161.30 230.77,162.27 229.43,162.61 C228.09,162.94 227.00,163.62 227.00,164.11 C227.00,164.60 226.27,165.00 225.38,165.00 C223.56,165.00 210.99,173.10 208.90,175.62 C208.15,176.52 204.15,179.85 200.02,183.01 C190.58,190.22 171.66,209.65 166.67,217.25 C164.59,220.41 162.54,223.00 162.12,223.00 C161.69,223.00 160.71,224.24 159.94,225.75 C159.18,227.26 157.30,229.98 155.78,231.78 C154.25,233.59 153.00,235.71 153.00,236.50 C153.00,237.28 152.16,238.73 151.14,239.71 C150.12,240.69 148.98,242.74 148.62,244.25 C148.26,245.76 147.52,247.00 146.98,247.00 C146.44,247.00 146.00,247.65 146.00,248.45 C146.00,249.25 144.68,251.85 143.07,254.24 C141.46,256.62 139.82,259.91 139.42,261.54 C139.03,263.17 138.09,265.39 137.35,266.47 C136.61,267.56 136.00,269.47 136.00,270.72 C136.00,271.98 135.60,273.00 135.12,273.00 C134.63,273.00 132.80,277.39 131.05,282.75 C129.29,288.11 127.60,293.17 127.28,294.00 C126.16,296.88 125.86,298.52 125.94,301.16 C125.98,302.62 125.49,305.10 124.86,306.66 C123.02,311.13 122.81,312.18 122.65,317.50 C122.57,320.25 121.92,323.52 121.21,324.76 C120.50,326.00 120.03,328.82 120.16,331.01 C120.29,333.21 119.91,335.49 119.31,336.09 C118.12,337.28 118.72,341.00 120.12,341.00 C120.62,341.00 121.00,417.09 121.00,520.00 C121.00,622.91 120.62,699.00 120.12,699.00 C118.60,699.00 118.21,702.57 119.53,704.38 C120.22,705.32 120.56,706.99 120.27,708.08 C119.98,709.17 120.46,711.96 121.33,714.28 C122.20,716.60 122.89,720.53 122.86,723.00 C122.79,728.62 123.20,730.91 124.79,733.72 C125.47,734.94 125.96,737.19 125.86,738.72 C125.76,740.25 126.43,743.24 127.34,745.37 C128.25,747.50 129.00,749.84 129.00,750.56 C129.00,751.28 129.53,753.14 130.17,754.68 C130.82,756.23 131.90,759.30 132.58,761.50 C135.88,772.23 144.83,792.04 147.94,795.50 C148.93,796.60 150.95,799.97 152.44,802.98 C153.93,805.99 157.06,810.72 159.41,813.48 C164.57,819.56 167.18,823.49 166.51,824.16 C166.23,824.44 167.01,825.21 168.25,825.88 C169.49,826.56 171.85,828.93 173.50,831.16 C177.60,836.71 200.85,858.52 206.45,862.07 C208.95,863.66 211.00,865.44 211.00,866.03 C211.00,866.63 213.01,868.00 215.46,869.08 C217.91,870.17 220.19,871.49 220.51,872.02 C221.48,873.58 238.14,883.13 240.16,883.29 C241.17,883.36 242.00,883.79 242.00,884.23 C242.00,885.14 250.46,889.08 259.93,892.58 C263.46,893.88 266.61,895.30 266.93,895.72 C267.24,896.15 269.30,896.66 271.50,896.85 C273.70,897.04 276.07,897.67 276.78,898.24 C277.48,898.82 279.82,899.42 281.98,899.59 C284.15,899.75 286.86,900.39 288.02,901.01 C290.35,902.26 292.51,902.78 298.50,903.54 C300.70,903.82 303.85,904.45 305.50,904.93 C307.15,905.42 310.41,905.75 312.75,905.66 C315.09,905.57 317.00,905.72 317.00,906.00 C317.00,906.44 695.42,906.25 702.00,905.81 ZM 526.75 555.42 C514.05,558.04 473.08,557.16 463.70,554.07 L 460.20 552.91 L 459.37 540.20 C458.36,524.74 458.37,448.33 459.38,441.83 C460.01,437.75 460.50,437.02 463.30,436.04 C472.82,432.69 516.56,432.30 528.50,435.46 C549.02,440.88 562.03,454.76 566.66,476.19 C569.05,487.21 568.78,508.35 566.13,518.31 C560.59,539.13 547.96,551.04 526.75,555.42 ZM 520.23 552.38 C524.87,552.00 528.42,551.20 529.11,550.37 C529.73,549.62 531.70,549.00 533.47,549.00 C535.26,549.00 537.72,548.11 539.00,547.00 C540.27,545.90 542.04,545.00 542.94,545.00 C545.75,545.00 555.39,534.41 557.51,529.00 C557.83,528.17 558.98,525.84 560.05,523.80 C561.12,521.77 562.00,519.16 562.00,518.00 C562.00,516.85 562.71,514.53 563.57,512.86 C564.44,511.19 564.90,509.18 564.60,508.40 C564.30,507.62 564.60,505.78 565.27,504.32 C566.22,502.22 566.21,501.57 565.24,501.25 C563.69,500.73 563.57,493.00 565.11,493.00 C565.82,493.00 565.97,492.02 565.52,490.25 C565.13,488.74 564.69,486.10 564.52,484.40 C564.36,482.69 563.73,480.36 563.11,479.21 C562.50,478.07 562.00,476.08 562.00,474.79 C562.00,473.50 561.35,471.51 560.55,470.37 C559.75,469.23 558.87,467.05 558.59,465.52 C558.31,464.00 557.32,461.91 556.39,460.88 C555.45,459.84 555.06,459.00 555.51,459.00 C555.97,459.00 552.88,455.62 548.66,451.50 C544.44,447.38 540.15,444.00 539.12,444.00 C538.09,444.00 536.68,443.33 536.00,442.50 C535.32,441.67 533.57,441.00 532.13,441.00 C530.68,440.99 528.15,440.18 526.50,439.20 C524.71,438.13 522.08,437.52 520.00,437.71 C518.08,437.88 514.57,437.36 512.21,436.56 C509.85,435.75 507.31,435.33 506.56,435.61 C505.82,435.90 503.33,435.63 501.03,435.01 C498.31,434.27 496.44,434.22 495.67,434.85 C493.67,436.51 482.12,438.14 475.91,437.65 C472.66,437.39 470.00,437.59 470.00,438.09 C470.00,438.59 469.17,439.00 468.15,439.00 C467.14,439.00 465.51,439.88 464.53,440.96 C463.07,442.58 462.79,444.58 462.92,452.46 C463.01,457.71 462.71,462.00 462.26,462.00 C461.81,462.00 461.38,474.38 461.30,489.50 C461.21,506.43 461.53,517.00 462.12,517.00 C462.67,517.00 463.00,520.92 462.91,526.25 C462.75,534.66 463.42,544.13 464.54,549.61 C464.90,551.38 465.55,551.66 468.48,551.34 C470.42,551.13 472.00,551.36 472.00,551.86 C472.00,552.37 475.04,552.59 478.75,552.36 C482.46,552.13 489.77,552.37 495.00,552.88 C500.23,553.39 506.30,553.63 508.50,553.41 C510.70,553.20 515.98,552.73 520.23,552.38 ZM 416.00 735.87 C416.00,735.12 414.59,734.93 411.82,735.30 C409.51,735.61 405.15,735.36 402.12,734.75 C397.95,733.92 396.52,733.93 396.23,734.82 C395.69,736.42 370.70,736.45 368.15,734.86 C366.87,734.06 365.77,734.03 364.48,734.75 C362.12,736.07 353.34,733.65 350.50,730.89 C348.65,729.10 348.47,727.38 348.16,708.43 C347.97,697.14 348.13,687.14 348.51,686.20 C348.89,685.27 349.32,678.99 349.47,672.27 C349.61,665.54 350.20,659.46 350.78,658.77 C351.95,657.34 351.25,652.00 349.88,652.00 C348.69,652.00 348.79,615.44 350.02,600.57 C350.68,592.55 351.50,588.11 352.50,587.00 C354.16,585.16 354.58,580.52 353.00,581.50 C352.43,581.85 352.00,581.01 352.00,579.56 C352.00,578.15 351.55,577.00 351.00,577.00 C350.35,577.00 350.00,565.33 350.00,544.00 C350.00,522.67 350.35,511.00 351.00,511.00 C351.55,511.00 352.00,510.30 352.00,509.44 C352.00,508.58 352.45,508.16 353.00,508.50 C354.52,509.44 354.19,505.87 352.59,504.08 C350.65,501.91 348.78,484.94 349.06,472.09 C349.19,466.26 348.93,457.34 348.50,452.25 C347.95,445.81 348.03,443.00 348.78,443.00 C349.48,443.00 349.59,442.03 349.09,440.25 C348.66,438.74 348.52,435.81 348.77,433.75 C349.05,431.40 348.81,430.00 348.11,430.00 C346.63,430.00 346.68,424.27 348.17,423.78 C349.04,423.49 349.05,422.59 348.21,420.17 C347.59,418.39 347.34,416.28 347.65,415.47 C347.96,414.66 347.71,414.00 347.09,414.00 C345.97,414.00 345.72,409.38 345.82,389.75 C345.84,384.94 345.44,381.00 344.93,381.00 C344.42,381.00 344.00,379.88 344.00,378.50 C344.00,377.12 344.48,376.00 345.07,376.00 C345.73,376.00 345.85,375.14 345.39,373.75 C344.99,372.51 344.73,370.40 344.83,369.06 C344.93,367.72 344.62,366.37 344.14,366.06 C343.67,365.75 343.05,362.23 342.77,358.23 C342.28,351.14 342.34,350.89 345.21,348.48 C346.83,347.12 348.46,345.96 348.83,345.92 C349.20,345.87 350.62,345.64 352.00,345.41 C353.38,345.17 355.17,344.92 356.00,344.84 C356.83,344.76 357.73,344.36 358.00,343.95 C358.88,342.62 379.00,341.59 379.00,342.87 C379.00,343.49 379.70,344.00 380.56,344.00 C381.42,344.00 381.84,344.45 381.50,345.00 C381.16,345.55 381.34,346.00 381.89,346.00 C382.45,346.00 383.34,345.21 383.88,344.25 C384.69,342.81 386.09,342.54 391.93,342.71 C395.94,342.83 399.00,342.51 399.00,341.96 C399.00,341.36 418.72,341.00 452.00,341.00 C488.83,341.00 505.00,341.33 505.00,342.07 C505.00,342.72 507.38,343.06 511.25,342.95 C514.69,342.85 520.13,343.11 523.35,343.54 C527.69,344.10 529.40,343.97 529.99,343.02 C530.59,342.05 533.04,341.91 540.39,342.47 C545.67,342.86 550.00,343.57 550.00,344.03 C550.00,344.50 550.79,344.91 551.75,344.96 C552.71,345.01 556.99,345.21 561.26,345.41 C565.71,345.61 569.69,346.33 570.61,347.09 C572.14,348.36 573.09,348.68 577.50,349.39 C578.60,349.56 581.70,350.46 584.38,351.39 C587.07,352.31 589.51,352.83 589.80,352.53 C590.10,352.24 591.05,352.64 591.93,353.43 C592.80,354.23 594.81,355.11 596.38,355.39 C597.96,355.68 600.06,356.65 601.06,357.55 C602.06,358.46 603.34,358.91 603.91,358.56 C604.48,358.20 605.73,358.83 606.70,359.96 C607.66,361.08 609.36,362.01 610.47,362.02 C611.59,362.02 614.02,363.37 615.89,365.02 C617.75,366.66 619.62,368.00 620.04,368.00 C621.51,368.00 628.90,374.76 628.20,375.46 C627.82,375.85 628.02,376.02 628.65,375.83 C630.23,375.37 638.74,381.95 643.90,387.62 C651.48,395.96 660.71,408.69 663.49,414.67 C664.99,417.88 667.82,423.85 669.79,427.94 C671.76,432.03 673.48,436.38 673.61,437.60 C673.74,438.83 674.57,440.95 675.46,442.30 C676.35,443.66 677.02,446.28 676.95,448.13 C676.89,449.99 677.58,453.52 678.49,455.99 C679.41,458.46 679.97,461.72 679.75,463.24 C679.53,464.76 679.69,466.00 680.11,466.00 C680.52,466.00 680.70,467.80 680.50,470.00 C680.30,472.20 680.55,474.00 681.07,474.00 C682.50,474.00 682.18,475.97 680.47,477.68 C679.29,478.85 679.20,479.54 680.08,480.59 C680.79,481.45 681.22,486.19 681.22,493.03 C681.22,502.34 680.93,504.45 679.37,506.30 C678.35,507.51 677.91,508.18 678.38,507.80 C678.85,507.41 679.86,507.72 680.62,508.48 C682.08,509.94 682.51,513.00 681.25,513.00 C680.84,513.00 680.42,516.34 680.32,520.42 C680.22,524.49 679.43,529.91 678.57,532.45 C677.71,534.99 677.00,538.39 677.00,540.00 C677.00,541.61 676.08,545.25 674.96,548.09 C673.84,550.93 673.16,553.50 673.45,553.78 C673.74,554.07 673.06,555.79 671.93,557.61 C670.81,559.43 669.97,561.49 670.06,562.21 C670.39,564.62 670.00,565.69 668.00,568.00 C666.90,569.27 666.00,570.83 666.00,571.47 C666.00,573.04 661.44,582.39 659.81,584.15 C659.09,584.93 657.83,586.73 657.00,588.14 C649.23,601.46 634.07,617.37 622.84,623.99 C618.80,626.37 614.02,629.60 612.22,631.16 C610.41,632.72 608.08,634.00 607.04,634.00 C606.00,634.00 604.46,634.68 603.63,635.51 C602.80,636.34 600.73,637.19 599.03,637.39 C597.33,637.58 595.13,638.48 594.14,639.37 C592.12,641.20 589.43,641.50 588.51,640.01 C588.16,639.44 586.74,640.09 585.21,641.51 C583.21,643.36 581.37,644.02 578.01,644.07 C571.67,644.17 568.04,644.73 566.68,645.82 C566.03,646.34 562.12,647.06 558.00,647.44 C551.15,648.05 550.37,647.93 549.03,646.06 C547.29,643.62 545.71,643.44 544.00,645.50 C543.21,646.45 541.01,647.00 537.98,647.00 C534.67,647.00 533.04,646.54 532.64,645.50 C532.32,644.67 531.12,644.00 529.97,644.00 C528.82,644.00 528.16,644.45 528.50,645.00 C528.84,645.55 528.42,646.00 527.56,646.00 C526.70,646.00 526.00,646.46 526.00,647.01 C526.00,648.05 499.03,647.39 496.00,646.28 C495.17,645.98 493.44,645.60 492.14,645.42 C490.84,645.25 489.01,644.41 488.06,643.56 C487.64,643.17 487.23,642.86 486.86,642.61 C496.23,642.67 509.90,642.85 530.00,643.09 C561.77,643.48 564.00,643.39 573.21,641.29 C608.14,633.35 633.58,616.37 652.15,588.62 C668.01,564.90 675.50,541.13 677.95,506.67 C682.12,448.24 660.59,399.67 618.00,371.39 C595.33,356.34 572.42,349.28 538.50,346.90 C517.81,345.44 391.85,345.44 371.00,346.89 C352.37,348.19 348.25,349.14 347.45,352.36 C347.14,353.57 347.58,363.99 348.42,375.53 C354.18,454.81 355.17,506.11 353.62,645.55 C353.14,689.03 353.05,725.60 353.44,726.80 C354.80,731.09 357.12,731.47 385.50,732.05 C439.42,733.15 464.53,733.07 465.80,731.80 C467.56,730.04 467.30,715.85 465.03,691.00 C463.95,679.17 462.94,664.45 462.79,658.28 C462.52,647.75 462.64,646.92 464.78,644.78 C465.07,644.49 465.28,644.24 465.52,644.01 C466.73,642.87 468.69,642.52 485.29,642.60 C485.34,642.72 485.41,642.85 485.50,643.00 C485.85,643.57 485.01,644.00 483.56,644.00 C482.15,644.00 481.00,644.48 481.00,645.07 C481.00,645.73 479.09,646.05 476.10,645.89 C473.01,645.72 470.35,646.19 468.93,647.13 C466.78,648.56 466.67,649.28 466.59,661.82 C466.54,669.07 466.84,675.00 467.26,675.00 C467.67,675.00 467.84,677.47 467.63,680.50 C467.42,683.53 467.64,686.00 468.12,686.00 C468.61,686.00 469.00,686.90 469.00,688.00 C469.00,689.10 468.50,690.00 467.89,690.00 C467.23,690.00 467.08,690.70 467.51,691.75 C467.91,692.71 468.26,694.06 468.29,694.75 C468.31,695.44 468.76,696.00 469.28,696.00 C469.83,696.00 470.06,698.77 469.82,702.50 C469.59,706.08 469.76,709.00 470.20,709.00 C471.45,709.00 471.14,715.79 469.87,716.21 C469.06,716.48 469.02,717.95 469.75,721.54 C471.05,727.92 470.61,732.82 468.56,734.87 C467.23,736.20 464.68,736.50 454.89,736.50 C444.47,736.50 442.73,736.27 441.88,734.75 C441.34,733.79 440.00,733.00 438.89,733.00 C437.79,733.00 437.16,733.45 437.50,734.00 C437.85,734.57 437.01,735.00 435.56,735.00 C434.15,735.00 433.00,735.45 433.00,736.00 C433.00,736.59 429.50,737.00 424.50,737.00 C418.84,737.00 416.00,736.62 416.00,735.87 Z" fill="none"/>
<path d="M 0.00 512.00 L 0.00 0.00 L 512.00 0.00 L 1024.00 0.00 L 1024.00 512.00 L 1024.00 1024.00 L 512.00 1024.00 L 0.00 1024.00 L 0.00 512.00 ZM 708.00 908.67 C741.17,903.10 771.18,891.68 796.44,875.01 C812.13,864.65 819.95,858.25 833.16,844.97 C861.25,816.73 880.73,782.69 890.39,744.97 C897.83,715.94 897.37,727.31 897.74,561.63 C898.03,433.36 897.88,412.83 896.65,413.30 C892.32,414.97 870.92,420.21 861.00,422.04 C846.33,424.75 816.87,425.77 801.99,424.08 C758.45,419.14 718.65,402.77 685.00,375.97 C667.78,362.26 647.15,339.00 635.28,319.93 C608.41,276.74 597.06,221.79 604.56,171.24 C605.88,162.34 611.90,136.02 613.67,131.40 C614.14,130.20 593.29,130.00 469.07,130.00 C373.81,130.00 320.58,130.36 314.21,131.06 C248.31,138.24 189.66,174.07 153.03,229.54 C134.17,258.10 122.83,289.07 118.44,323.96 C116.29,341.04 116.29,698.96 118.44,716.04 C121.97,744.14 129.44,767.92 142.52,792.73 C152.74,812.09 163.93,827.27 180.28,843.90 C218.60,882.89 267.00,905.34 323.50,910.34 C325.70,910.53 410.75,910.63 512.50,910.56 C684.20,910.44 698.25,910.31 708.00,908.67 ZM 840.46 360.96 C887.29,355.59 927.33,331.56 954.50,292.50 C987.57,244.97 991.38,181.67 964.29,129.90 C956.79,115.57 947.80,103.66 934.54,90.48 C921.47,77.48 910.85,69.75 895.25,61.83 C869.55,48.79 842.56,43.36 812.50,45.16 C757.41,48.46 706.90,82.30 682.11,132.50 C662.89,171.41 659.95,212.83 673.50,253.64 C686.43,292.58 716.30,326.79 753.50,345.27 C780.60,358.74 811.36,364.29 840.46,360.96 ZM 385.50 732.05 C357.12,731.47 354.80,731.09 353.44,726.80 C353.05,725.60 353.14,689.03 353.62,645.55 C355.17,506.11 354.18,454.81 348.42,375.53 C347.58,363.99 347.14,353.57 347.45,352.36 C348.25,349.14 352.37,348.19 371.00,346.89 C391.85,345.44 517.81,345.44 538.50,346.90 C572.42,349.28 595.33,356.34 618.00,371.39 C660.59,399.67 682.12,448.24 677.95,506.67 C675.50,541.13 668.01,564.90 652.15,588.62 C633.58,616.37 608.14,633.35 573.21,641.29 C564.00,643.39 561.77,643.48 530.00,643.09 C463.71,642.29 467.36,642.20 464.78,644.78 C462.64,646.92 462.52,647.75 462.79,658.28 C462.94,664.45 463.95,679.17 465.03,691.00 C467.30,715.85 467.56,730.04 465.80,731.80 C464.53,733.07 439.42,733.15 385.50,732.05 ZM 526.75 555.42 C547.96,551.04 560.59,539.13 566.13,518.31 C568.78,508.35 569.05,487.21 566.66,476.19 C562.03,454.76 549.02,440.88 528.50,435.46 C516.56,432.30 472.82,432.69 463.30,436.04 C460.50,437.02 460.01,437.75 459.38,441.83 C458.37,448.33 458.36,524.74 459.37,540.20 L 460.20 552.91 L 463.70 554.07 C473.08,557.16 514.05,558.04 526.75,555.42 Z" fill="none"/>
</g>
</svg>